<?xml version="1.0" encoding="UTF-8"?>
<svg id="Layer_1" xmlns="http://www.w3.org/2000/svg" version="1.1" xmlns:xlink="http://www.w3.org/1999/xlink" viewBox="0 0 1080 1080">
  <!-- Generator: Adobe Illustrator 30.3.0, SVG Export Plug-In . SVG Version: 2.1.3 Build 182)  -->
  <defs>
    <style>
      .st0 {
        fill: url(#linear-gradient2);
      }

      .st1 {
        fill: #54b948;
      }

      .st2 {
        fill: url(#linear-gradient1);
      }

      .st3 {
        fill: url(#linear-gradient4);
      }

      .st4 {
        fill: url(#linear-gradient5);
      }

      .st5 {
        fill: url(#linear-gradient3);
      }

      .st6 {
        fill: #0092d7;
      }

      .st7 {
        fill: url(#linear-gradient);
      }
    </style>
    <linearGradient id="linear-gradient" x1="402" y1="358.58" x2="599.79" y2="358.58" gradientTransform="translate(-36.31 8.87) rotate(-3.57)" gradientUnits="userSpaceOnUse">
      <stop offset="0" stop-color="#2e3192"/>
      <stop offset=".69" stop-color="#00aeef"/>
    </linearGradient>
    <linearGradient id="linear-gradient1" x1="500.9" y1="247.67" x2="568.17" y2="247.67" xlink:href="#linear-gradient"/>
    <linearGradient id="linear-gradient2" x1="385.49" y1="466.32" x2="597.63" y2="466.32" gradientTransform="translate(-25.21 24.8) rotate(-2.94)" gradientUnits="userSpaceOnUse">
      <stop offset="0" stop-color="#ef4136"/>
      <stop offset=".63" stop-color="#f08821"/>
    </linearGradient>
    <linearGradient id="linear-gradient3" x1="336.21" y1="504.2" x2="403.5" y2="504.2" xlink:href="#linear-gradient2"/>
    <linearGradient id="linear-gradient4" x1="526.35" y1="403.16" x2="692.22" y2="403.16" gradientUnits="userSpaceOnUse">
      <stop offset="0" stop-color="#009444"/>
      <stop offset=".91" stop-color="#8dc63f"/>
    </linearGradient>
    <linearGradient id="linear-gradient5" x1="676.3" y1="489.33" x2="743.59" y2="489.33" xlink:href="#linear-gradient4"/>
  </defs>
  <g>
    <g>
      <path class="st7" d="M392.32,418.83s-19.04-129.98,93.81-160.7c0,0,29.03,27.34,59.88-3.74,0,0,52.73,56.83,37.75,137.92,0,0-60.54-182.04-191.45,26.52Z"/>
      <circle class="st2" cx="512.61" cy="222.78" r="33.64"/>
    </g>
    <g>
      <path class="st0" d="M599.17,529.55s-107.84,75.02-185.67-12.28c0,0,11.52-38.18-30.05-51.93,0,0,27.34-72.54,106.6-95.31,0,0-135.92,135.38,109.13,159.52Z"/>
      <circle class="st5" cx="370.05" cy="509.34" r="33.64"/>
    </g>
    <g>
      <path class="st3" d="M586.11,295.51s125.24,39.63,103.6,154.57c0,0-37.27,14.18-22.79,55.5,0,0-74.15,22.62-140.56-26.27,0,0,190.2,25.03,59.75-183.81Z"/>
      <circle class="st4" cx="709.95" cy="489.33" r="33.64"/>
    </g>
  </g>
  <g>
    <path class="st6" d="M472.56,594.74v42.47h-12.27v-16.52h-9.37v16.52h-12.27v-42.47h12.27v15.62h9.37v-15.62h12.27Z"/>
    <path class="st6" d="M511.92,594.74v28.13c0,5.33-1.49,9.16-4.47,11.5-2.98,2.33-6.86,3.5-11.64,3.5-5.04,0-9.08-1.12-12.14-3.36-3.06-2.24-4.58-5.89-4.58-10.95v-28.81h12.48v27.29c0,2.03.4,3.52,1.21,4.45s2.1,1.4,3.87,1.4c1.48,0,2.69-.34,3.64-1.01.94-.67,1.51-1.44,1.69-2.29.18-.85.28-2.51.28-4.98v-24.86h9.67Z"/>
    <path class="st6" d="M561.95,594.74v42.47h-11.39v-30.37l-7.4,30.37h-7.79l-7.69-30.37v30.37h-9.2v-42.47h16.04l5.8,22.56,5.54-22.56h16.1Z"/>
    <path class="st6" d="M590.97,637.21l-2.26-8.37h-10.71l-2.4,8.37h-9.96l12.34-42.47h12.98l12.54,42.47h-12.52ZM580.09,619.57h6.47l-3.24-12.32-3.23,12.32Z"/>
    <path class="st6" d="M641.36,637.21h-9.99l-10.95-18.76c-1.41-2.41-2.82-5.33-4.25-8.77.64,2.74.97,5.06.97,6.97v20.57h-9.96v-42.47h11.6l9.32,15.56c1.86,3.09,3.26,5.81,4.22,8.15-.62-3.63-.94-7.34-.94-11.14v-12.57h9.99v42.47Z"/>
  </g>
  <g>
    <path class="st1" d="M362.11,680.05l11.22.72c-.53,5.21-2.34,9.2-5.43,11.98-3.1,2.78-6.9,4.17-11.41,4.17-5.43,0-9.81-1.91-13.15-5.72-3.34-3.82-5.01-9.08-5.01-15.81s1.58-12.03,4.75-16.12c3.16-4.09,7.58-6.13,13.24-6.13,5.29,0,9.36,1.56,12.2,4.67,2.84,3.11,4.45,7.24,4.82,12.38l-11.45.65c0-2.84-.51-4.89-1.54-6.16-1.03-1.26-2.23-1.9-3.62-1.9-3.87,0-5.8,4.13-5.8,12.38,0,4.62.5,7.77,1.51,9.43,1,1.66,2.42,2.49,4.23,2.49,3.24,0,5.06-2.34,5.45-7.03Z"/>
    <path class="st1" d="M395.09,696.92c-5.62,0-10.21-1.98-13.75-5.94-3.54-3.96-5.32-9.26-5.32-15.9s1.69-11.59,5.08-15.73c3.39-4.14,8.09-6.21,14.1-6.21,5.57,0,10.1,1.95,13.61,5.85,3.5,3.9,5.26,9.11,5.26,15.62s-1.77,12.15-5.3,16.21c-3.54,4.07-8.09,6.1-13.68,6.1ZM395.03,687.27c2.07,0,3.56-.96,4.47-2.88.91-1.92,1.36-5.43,1.36-10.53,0-7.38-1.87-11.08-5.59-11.08-4.02,0-6.03,4.21-6.03,12.63,0,7.9,1.93,11.85,5.8,11.85Z"/>
    <path class="st1" d="M453.44,696.26h-9.99l-10.95-18.76c-1.41-2.41-2.82-5.33-4.25-8.77.64,2.74.97,5.06.97,6.97v20.57h-9.96v-42.47h11.6l9.32,15.56c1.86,3.09,3.26,5.81,4.22,8.15-.62-3.63-.94-7.34-.94-11.14v-12.57h9.99v42.47Z"/>
    <path class="st1" d="M456.28,683.97l11.39-2.18c.96,3.42,3.42,5.13,7.38,5.13,3.08,0,4.63-.87,4.63-2.61,0-.91-.36-1.62-1.07-2.13-.71-.51-1.99-.96-3.82-1.35-7.01-1.43-11.51-3.29-13.5-5.6-1.99-2.3-2.99-5.01-2.99-8.12,0-4,1.43-7.33,4.29-9.99,2.86-2.66,6.98-3.98,12.35-3.98,8.14,0,13.52,3.47,16.14,10.42l-10.16,3.27c-1.05-2.84-3.19-4.26-6.41-4.26-2.68,0-4.01.88-4.01,2.64,0,.79.3,1.4.91,1.84s1.78.85,3.52,1.24c4.79,1.07,8.18,2.03,10.2,2.85,2.01.83,3.69,2.24,5.04,4.25,1.35,2,2.02,4.36,2.02,7.08,0,4.3-1.64,7.78-4.92,10.45-3.28,2.67-7.59,4-12.92,4-9.74,0-15.76-4.31-18.04-12.94Z"/>
    <path class="st1" d="M529.28,653.79v28.13c0,5.33-1.49,9.16-4.47,11.5-2.98,2.33-6.86,3.5-11.64,3.5-5.04,0-9.09-1.12-12.14-3.36-3.06-2.24-4.58-5.89-4.58-10.95v-28.81h12.48v27.29c0,2.03.4,3.52,1.21,4.45.81.93,2.1,1.4,3.87,1.4,1.48,0,2.69-.34,3.64-1.01.94-.67,1.51-1.44,1.69-2.29s.28-2.51.28-4.98v-24.86h9.67Z"/>
    <path class="st1" d="M563.87,685.84v10.42h-28.03v-42.47h12.27v32.05h15.76Z"/>
    <path class="st1" d="M581.77,663.97v32.3h-11.63v-32.3h-8.29v-10.17h28.21v10.17h-8.29Z"/>
    <path class="st1" d="M613.42,696.26l-2.26-8.37h-10.71l-2.4,8.37h-9.96l12.34-42.47h12.98l12.54,42.47h-12.52ZM602.54,678.62h6.47l-3.24-12.32-3.23,12.32Z"/>
    <path class="st1" d="M663.81,696.26h-9.99l-10.95-18.76c-1.41-2.41-2.82-5.33-4.25-8.77.64,2.74.97,5.06.97,6.97v20.57h-9.96v-42.47h11.6l9.32,15.56c1.86,3.09,3.26,5.81,4.22,8.15-.62-3.63-.94-7.34-.94-11.14v-12.57h9.99v42.47Z"/>
    <path class="st1" d="M692.78,680.05l11.22.72c-.53,5.21-2.34,9.2-5.43,11.98-3.1,2.78-6.9,4.17-11.41,4.17-5.43,0-9.81-1.91-13.15-5.72-3.34-3.82-5.01-9.08-5.01-15.81s1.58-12.03,4.75-16.12c3.16-4.09,7.58-6.13,13.24-6.13,5.29,0,9.36,1.56,12.2,4.67,2.84,3.11,4.45,7.24,4.82,12.38l-11.45.65c0-2.84-.51-4.89-1.54-6.16-1.03-1.26-2.23-1.9-3.62-1.9-3.87,0-5.8,4.13-5.8,12.38,0,4.62.5,7.77,1.51,9.43,1.01,1.66,2.42,2.49,4.23,2.49,3.24,0,5.06-2.34,5.45-7.03Z"/>
    <path class="st1" d="M741.68,653.79l-12.51,24.49v17.98h-11.92v-17.98l-13.45-24.49h13.43l7.01,14,6.72-14h10.73Z"/>
  </g>
</svg>